<?xml version="1.0" encoding="UTF-8"?><svg id="Layer_1" xmlns="http://www.w3.org/2000/svg" viewBox="0 0 160.13 24.37"><path d="M6.26,10.36l-3.64-5.59C4.89,1.95,8.29.4,11.76.38c2.01-.01,4.07.5,5.94,1.58,2.07,1.2,3.64,2.92,4.64,4.9l-9.77-.51c-2.77-.16-5.4,1.39-6.31,4ZM7.83,12.19c0,2.2,1.78,3.98,3.98,3.98s3.98-1.78,3.98-3.98-1.78-3.98-3.98-3.98-3.98,1.78-3.98,3.98ZM22.82,7.94l-6.65.34c1.8,2.11,1.83,5.15.31,7.48l-5.34,8.21c2.21.12,4.49-.37,6.56-1.57,5.11-2.95,7.18-9.14,5.11-14.47ZM6.36,14.45L1.92,5.72c-1.21,1.86-1.92,4.08-1.92,6.47,0,5.9,4.32,10.79,9.97,11.66l3.03-5.94c-2.74.51-5.39-.99-6.64-3.45Z" style="stroke-width:0px;"/><path d="M69.01,6.4c-1.95-3.82-6.17-6.02-10.76-6.02-5.66,0-10.4,3.98-11.54,9.31,1.24-2.21,4.1-3.77,7.12-3.77,3.77,0,5.76,2.33,5.82,2.39,1.05,1.13,1.57,2.4,1.57,3.96,0,.5-.25,1.23-.72,1.84-.07.1-.3.23-.3.52,0,.24.16.47.44.67,1.33.92,3.83.8,3.83.8.98,0,1.95-.27,2.79-.77,1.73-1.01,2.8-2.87,2.81-4.88.02-2.07-.74-3.44-1.05-4.05ZM56.2,22.64c-.88-.55-1.64-1.28-2.22-2.14-1.57-2.26-1.63-4.55-.96-6.47.48-1.51,1.43-2.83,2.71-3.76,2.81-2.15,4.51-.27,4.72-.05-.07-.17-.14-.33-.23-.48-.44-.76-1.14-1.73-2.69-2.55-1.61-.84-3.36-.88-3.7-.88-1.84,0-3.71.62-5.12,1.7-.94.72-2.03,1.93-2.23,3.56-.05.59-.13,2.99,1.09,5.63,2.12,4.52,6.85,7.22,11.82,6.74-1.81-.32-3.13-1.27-3.2-1.3ZM68.14,17.96c-.11-.07-.26-.08-.38-.01-.31.16-.64.31-.97.43-1.06.4-2.18.6-3.31.6-4.36,0-8.17-3-8.17-6.86,0-.44.11-.88.31-1.27-.76.67-1.39,1.48-1.85,2.38-.71,1.4-1.57,4.2.63,7.22.31.42,1.09,1.43,2.67,2.27,1.12.6,2.33.93,3.41.93,1.67,0,5.5-1.59,7.76-5.18.11-.17.06-.4-.11-.51,0,0,0,0,0,0Z" style="stroke-width:0px;"/><path d="M107.85,1.94c-8.1,0-12.03,10.65-7.02,16.9,1.74,2.16,4.22,3.6,7.02,3.6,1.73,0,3.35-.53,4.73-1.45-2.09,1.87-4.85,3-7.87,3-.19,0-.38,0-.57-.01-6.26-.29-11.24-5.46-11.24-11.79S98.19.38,104.71.38h.04c3,.01,5.75,1.15,7.83,3-1.38-.92-3-1.45-4.73-1.45ZM112.7,20.87c-1.95,1.18-4.32,1.12-6.28-.28,2.68-.98,4.65-4.36,4.65-8.41s-1.96-7.42-4.64-8.41c1.99-1.39,4.34-1.44,6.33-.24,5.04,4.7,5.02,12.65-.06,17.33Z" style="stroke-width:0px;"/><path d="M153.48,0l2.13,2.42s1.87-.52,2.75.36c.88.88,1.61,1.66,1.61,1.66l-.57,1.4.73,2.08s-2.14,8.1-2.39,9.09c-.49,1.95-.83,2.7-2.23,3.69-1.4.99-3.94,2.7-4.36,2.96s-.93.7-1.4.7-.99-.44-1.4-.7c-1.47-.97-2.92-1.95-4.36-2.96-1.4-.99-1.74-1.74-2.23-3.69-.25-.99-2.39-9.09-2.39-9.09l.73-2.08-.57-1.4s.73-.78,1.61-1.66c.88-.88,2.75-.36,2.75-.36l2.13-2.42h7.47,0ZM149.75,15.17c-.14,0-1.05.32-1.79.7-.73.38-1.26.65-1.43.75-.17.11-.07.31.09.42.15.11,2.23,1.72,2.43,1.9.2.18.5.47.7.47s.5-.29.7-.47c.2-.18,2.27-1.79,2.43-1.9.15-.11.26-.31.09-.42-.17-.11-.7-.37-1.43-.75-.73-.38-1.64-.7-1.78-.7ZM149.75,3.71s-.42,0-1.04.21-1.3.47-1.61.47-2.62-.44-2.62-.44c0,0-2.74,3.31-2.74,4.02s.34.89.69,1.26l2.05,2.18c.19.21.6.52.36,1.08-.24.56-.59,1.28-.2,2.01.39.73,1.06,1.21,1.49,1.13.43-.08,1.43-.61,1.8-.85.37-.24,1.54-1.21,1.54-1.58s-1.21-1.04-1.44-1.19c-.22-.15-1.25-.74-1.27-.96-.02-.23-.01-.3.29-.86.3-.57.84-1.32.75-1.83-.09-.5-.96-.76-1.59-1-.62-.24-1.83-.68-1.98-.75-.15-.07-.11-.14.34-.18.45-.04,1.75-.22,2.33-.05s1.58.41,1.66.54c.08.13.15.14.07.59-.08.45-.51,2.62-.55,3.01-.04.39-.12.64.29.74.42.1,1.11.26,1.35.26s.94-.16,1.35-.26c.41-.09.33-.35.29-.73-.04-.39-.47-2.56-.55-3.01-.08-.45-.01-.46.07-.59.08-.13,1.08-.38,1.66-.54s1.87,0,2.33.05c.46.04.49.11.34.18-.15.07-1.35.52-1.98.75-.62.24-1.5.5-1.59,1-.09.5.45,1.26.75,1.83.3.57.31.63.29.86-.02.23-1.04.81-1.27.96-.22.15-1.44.82-1.44,1.19s1.17,1.34,1.54,1.58c.37.24,1.38.77,1.8.85.43.08,1.1-.41,1.49-1.13.39-.73.04-1.44-.2-2.01-.24-.56.17-.88.36-1.08l2.05-2.18c.35-.37.69-.55.69-1.26s-2.74-4.02-2.74-4.02c0,0-2.31.44-2.62.44s-.99-.26-1.61-.47-1.04-.21-1.04-.21Z" style="stroke-width:0px;"/></svg>