<?xml version="1.0" encoding="UTF-8"?><svg id="Layer_1" xmlns="http://www.w3.org/2000/svg" viewBox="0 0 228 56"><rect y="0" width="228" height="56" rx="28" ry="28" style="fill:#0273b7; stroke-width:0px;"/><text transform="translate(62.8 37.66)" style="fill:#fff; font-family:SourceSansRoman-Regular, &apos;Source Sans Variable&apos;; font-size:32.53px; font-variation-settings:&apos;wght&apos; 400;"><tspan x="0" y="0">download</tspan></text><path d="M36.47,15.34c-.69,0-1.25.56-1.25,1.25v10h-4.37c-.35,0-.62.28-.62.62,0,.17.07.32.18.44.01.01.03.02.04.04l6.38,6.02.04.04c.23.22.54.34.85.34.32,0,.62-.12.85-.34h.02s0-.02.01-.03l6.38-6.01s.02-.02.04-.03h0s0-.01,0-.01c.12-.12.18-.28.18-.44,0-.35-.28-.62-.62-.62h-4.37v-10c0-.69-.56-1.25-1.25-1.25h-2.5ZM26.47,37.84c-.69,0-1.26.54-1.27,1.23,0,.69.54,1.26,1.23,1.27.01,0,.02,0,.04,0h22.5c.69,0,1.26-.54,1.27-1.23s-.54-1.26-1.23-1.27c-.01,0-.02,0-.04,0h-22.5Z" style="fill:#fff; stroke-width:0px;"/></svg>